<svg width="19" height="16" viewBox="0 0 19 16" fill="none" xmlns="http://www.w3.org/2000/svg">
<path d="M6.65 11.4H8.55V8.55H11.4V6.65H8.55V3.8H6.65V6.65H3.8V8.55H6.65V11.4ZM1.9 15.2C1.3775 15.2 0.930208 15.014 0.558125 14.6419C0.186042 14.2698 0 13.8225 0 13.3V1.9C0 1.3775 0.186042 0.930208 0.558125 0.558125C0.930208 0.186042 1.3775 0 1.9 0H13.3C13.8225 0 14.2698 0.186042 14.6419 0.558125C15.014 0.930208 15.2 1.3775 15.2 1.9V6.175L19 2.375V12.825L15.2 9.025V13.3C15.2 13.8225 15.014 14.2698 14.6419 14.6419C14.2698 15.014 13.8225 15.2 13.3 15.2H1.9ZM1.9 13.3H13.3V1.9H1.9V13.3ZM1.9 13.3V1.9V13.3Z" fill="#FF8B9B"/>
</svg>
